<?xml version="1.0" standalone="no"?>
<!DOCTYPE svg PUBLIC "-//W3C//DTD SVG 20010904//EN"
 "http://www.w3.org/TR/2001/REC-SVG-20010904/DTD/svg10.dtd">
<svg version="1.0" xmlns="http://www.w3.org/2000/svg"
 width="1024.000000pt" height="1024.000000pt" viewBox="0 0 1024.000000 1024.000000"
 preserveAspectRatio="xMidYMid meet">
<metadata>
Created by potrace 1.14, written by Peter Selinger 2001-2017
</metadata>
<g transform="translate(0.000000,1024.000000) scale(0.100000,-0.100000)"
fill="#000000" stroke="none">
<path d="M1119 9897 c-24 -13 -57 -43 -74 -66 l-30 -43 0 -468 0 -468 30 -43
c17 -23 50 -53 74 -66 l44 -23 3947 0 3947 0 44 23 c24 13 58 43 74 66 l30 43
0 468 0 468 -30 43 c-16 23 -50 53 -74 66 l-44 23 -3947 0 -3947 0 -44 -23z
m616 -266 c76 -36 131 -89 164 -160 22 -47 26 -70 26 -141 0 -102 -28 -173
-95 -240 -67 -67 -138 -95 -240 -95 -71 0 -94 4 -141 26 -72 34 -124 88 -163
169 -26 55 -30 77 -30 140 0 249 253 408 479 301z m900 -40 c56 -25 122 -91
148 -150 15 -33 21 -66 21 -121 0 -91 -23 -149 -84 -210 -61 -61 -119 -84
-210 -84 -91 0 -149 23 -210 84 -195 195 -41 528 233 505 33 -3 78 -13 102
-24z m870 0 c56 -25 115 -85 146 -147 32 -66 33 -177 2 -245 -95 -211 -388
-237 -519 -46 -113 164 -27 400 164 454 59 16 150 9 207 -16z m880 0 c56 -25
122 -91 148 -150 15 -33 21 -66 21 -121 0 -91 -23 -149 -84 -210 -61 -61 -119
-84 -210 -84 -89 -1 -151 25 -213 87 -157 157 -83 433 133 494 57 16 149 9
205 -16z m874 -3 c106 -51 165 -147 165 -268 0 -123 -58 -216 -170 -271 -66
-32 -177 -33 -245 -2 -208 94 -237 382 -52 515 83 61 208 71 302 26z m876 3
c56 -25 122 -91 148 -150 15 -33 21 -66 21 -121 0 -91 -23 -149 -84 -210 -61
-61 -119 -84 -210 -84 -91 0 -149 23 -210 84 -195 195 -41 528 233 505 33 -3
78 -13 102 -24z m880 0 c56 -25 115 -85 146 -147 18 -38 23 -65 23 -124 0 -89
-25 -151 -87 -213 -129 -129 -351 -106 -453 47 -138 208 22 482 269 461 33 -3
78 -13 102 -24z m870 0 c56 -25 122 -91 148 -150 15 -33 21 -66 21 -121 0 -91
-23 -149 -84 -210 -61 -61 -119 -84 -210 -84 -91 0 -149 23 -210 84 -195 195
-41 528 233 505 33 -3 78 -13 102 -24z m880 0 c56 -25 122 -91 148 -150 15
-33 21 -66 21 -121 0 -91 -23 -149 -84 -210 -61 -61 -119 -84 -210 -84 -91 0
-149 23 -210 84 -195 195 -41 528 233 505 33 -3 78 -13 102 -24z"/>
<path d="M2430 9591 c-48 -15 -85 -39 -121 -78 -61 -64 -74 -97 -74 -193 0
-96 13 -129 74 -193 60 -64 103 -82 201 -82 98 0 141 18 201 82 61 64 74 97
74 193 0 96 -13 129 -74 193 -53 57 -104 80 -186 83 -38 2 -81 0 -95 -5z"/>
<path d="M4160 9583 c-61 -22 -142 -104 -163 -167 -37 -108 -13 -211 67 -292
114 -113 278 -113 392 0 113 114 113 278 0 392 -80 80 -189 104 -296 67z"/>
<path d="M7660 9583 c-61 -22 -142 -104 -163 -167 -37 -108 -13 -211 67 -292
114 -113 278 -113 392 0 113 114 113 278 0 392 -80 80 -189 104 -296 67z"/>
<path d="M8557 9586 c-171 -64 -244 -244 -161 -397 53 -96 133 -144 244 -144
112 0 191 47 245 147 25 45 29 64 30 128 0 65 -4 82 -30 128 -50 91 -126 140
-228 148 -40 3 -75 -1 -100 -10z"/>
<path d="M1119 8497 c-24 -13 -57 -43 -74 -66 l-30 -43 0 -3968 0 -3968 30
-43 c17 -23 50 -53 74 -66 l44 -23 3947 0 3947 0 44 23 c24 13 58 43 74 66
l30 43 0 3968 0 3968 -30 43 c-16 23 -50 53 -74 66 l-44 23 -3947 0 -3947 0
-44 -23z m3961 -737 l0 -200 -200 0 -200 0 0 200 0 200 200 0 200 0 0 -200z
m440 0 l0 -200 -200 0 -200 0 0 200 0 200 200 0 200 0 0 -200z m-440 -430 l0
-210 -200 0 -200 0 0 210 0 210 200 0 200 0 0 -210z m440 0 l0 -210 -200 0
-200 0 0 210 0 210 200 0 200 0 0 -210z m-860 -440 l0 -210 -210 0 -210 0 0
210 0 210 210 0 210 0 0 -210z m420 0 l0 -210 -200 0 -200 0 0 210 0 210 200
0 200 0 0 -210z m440 0 l0 -210 -200 0 -200 0 0 210 0 210 200 0 200 0 0 -210z
m440 0 l0 -210 -210 0 -210 0 0 210 0 210 210 0 210 0 0 -210z m-1300 -440 l0
-210 -210 0 -210 0 0 210 0 210 210 0 210 0 0 -210z m420 0 l0 -210 -200 0
-200 0 0 210 0 210 200 0 200 0 0 -210z m440 0 l0 -210 -200 0 -200 0 0 210 0
210 200 0 200 0 0 -210z m440 0 l0 -210 -210 0 -210 0 0 210 0 210 210 0 210
0 0 -210z m-1740 -440 l0 -210 -210 0 -210 0 0 210 0 210 210 0 210 0 0 -210z
m440 0 l0 -210 -210 0 -210 0 0 210 0 210 210 0 210 0 0 -210z m420 0 l0 -210
-200 0 -200 0 0 210 0 210 200 0 200 0 0 -210z m440 0 l0 -210 -200 0 -200 0
0 210 0 210 200 0 200 0 0 -210z m440 0 l0 -210 -210 0 -210 0 0 210 0 210
210 0 210 0 0 -210z m440 0 l0 -210 -210 0 -210 0 0 210 0 210 210 0 210 0 0
-210z m-3500 -440 l0 -210 -210 0 -210 0 0 210 0 210 210 0 210 0 0 -210z
m440 0 l0 -210 -210 0 -210 0 0 210 0 210 210 0 210 0 0 -210z m440 0 l0 -210
-210 0 -210 0 0 210 0 210 210 0 210 0 0 -210z m438 3 l-3 -208 -207 -3 -208
-2 0 210 0 210 210 0 210 0 -2 -207z m442 -3 l0 -210 -210 0 -210 0 0 210 0
210 210 0 210 0 0 -210z m420 0 l0 -210 -200 0 -200 0 0 210 0 210 200 0 200
0 0 -210z m440 0 l0 -210 -200 0 -200 0 0 210 0 210 200 0 200 0 0 -210z m440
0 l0 -210 -207 2 -208 3 -3 195 c-1 107 0 200 2 207 4 10 53 13 211 13 l205 0
0 -210z m440 0 l0 -210 -210 0 -210 0 0 210 0 210 210 0 210 0 0 -210z m440 0
l0 -210 -210 0 -210 0 0 210 0 210 210 0 210 0 0 -210z m440 0 l0 -210 -210 0
-210 0 0 210 0 210 210 0 210 0 0 -210z m440 0 l0 -210 -210 0 -210 0 0 210 0
210 210 0 210 0 0 -210z m-5700 -440 l0 -210 -200 0 -200 0 0 210 0 210 200 0
200 0 0 -210z m440 0 l0 -210 -210 0 -210 0 0 210 0 210 210 0 210 0 0 -210z
m440 0 l0 -210 -210 0 -210 0 0 210 0 210 210 0 210 0 0 -210z m440 0 l0 -210
-210 0 -210 0 0 210 0 210 210 0 210 0 0 -210z m440 0 l0 -210 -210 0 -210 0
0 210 0 210 210 0 210 0 0 -210z m440 5 c0 -204 0 -205 -22 -210 -13 -3 -106
-4 -208 -3 l-185 3 -3 208 -2 207 210 0 210 0 0 -205z m440 7 c0 -141 -3 -201
-12 -210 -9 -9 -69 -12 -210 -12 l-198 0 0 210 0 210 210 0 210 0 0 -198z
m420 -12 l0 -210 -200 0 -200 0 0 210 0 210 200 0 200 0 0 -210z m440 0 l0
-210 -200 0 -200 0 0 210 0 210 200 0 200 0 0 -210z m440 6 c0 -177 -2 -205
-16 -210 -9 -3 -97 -6 -196 -6 -142 0 -182 3 -194 14 -11 12 -14 52 -14 194 0
99 3 187 6 196 5 14 33 16 210 16 l204 0 0 -204z m440 0 c0 -177 -2 -205 -16
-210 -20 -8 -368 -8 -388 0 -14 5 -16 33 -16 210 l0 204 210 0 210 0 0 -204z
m440 -6 l0 -210 -210 0 -210 0 0 210 0 210 210 0 210 0 0 -210z m440 0 l0
-210 -210 0 -210 0 0 210 0 210 210 0 210 0 0 -210z m440 0 l0 -210 -210 0
-210 0 0 210 0 210 210 0 210 0 0 -210z m440 0 l0 -210 -210 0 -210 0 0 210 0
210 210 0 210 0 0 -210z m420 0 l0 -210 -200 0 -200 0 0 210 0 210 200 0 200
0 0 -210z m-6560 -430 l0 -200 -200 0 -200 0 0 200 0 200 200 0 200 0 0 -200z
m440 0 l0 -200 -210 0 -210 0 0 200 0 200 210 0 210 0 0 -200z m440 0 l0 -200
-210 0 -210 0 0 200 0 200 210 0 210 0 0 -200z m440 0 l0 -200 -210 0 -210 0
0 200 0 200 210 0 210 0 0 -200z m440 0 l0 -200 -210 0 -210 0 0 200 0 200
210 0 210 0 0 -200z m440 0 l0 -200 -210 0 -210 0 0 200 0 200 210 0 210 0 0
-200z m440 0 l0 -200 -210 0 -210 0 0 200 0 200 210 0 210 0 0 -200z m420 0
l0 -200 -200 0 -200 0 0 200 0 200 200 0 200 0 0 -200z m440 0 l0 -200 -200 0
-200 0 0 200 0 200 200 0 200 0 0 -200z m440 0 l0 -200 -210 0 -210 0 0 200 0
200 210 0 210 0 0 -200z m440 0 l0 -200 -210 0 -210 0 0 200 0 200 210 0 210
0 0 -200z m440 0 l0 -200 -210 0 -210 0 0 200 0 200 210 0 210 0 0 -200z m440
0 l0 -200 -210 0 -210 0 0 200 0 200 210 0 210 0 0 -200z m440 0 l0 -200 -210
0 -210 0 0 200 0 200 210 0 210 0 0 -200z m440 0 l0 -200 -210 0 -210 0 0 200
0 200 210 0 210 0 0 -200z m420 0 l0 -200 -200 0 -200 0 0 200 0 200 200 0
200 0 0 -200z m-5240 -440 l0 -200 -210 0 -210 0 0 200 0 200 210 0 210 0 0
-200z m440 0 l0 -200 -210 0 -210 0 0 200 0 200 210 0 210 0 0 -200z m440 0
l0 -200 -210 0 -210 0 0 200 0 200 210 0 210 0 0 -200z m440 0 l0 -200 -210 0
-210 0 0 200 0 200 210 0 210 0 0 -200z m420 0 l0 -200 -200 0 -200 0 0 200 0
200 200 0 200 0 0 -200z m440 0 l0 -200 -200 0 -200 0 0 200 0 200 200 0 200
0 0 -200z m440 0 l0 -200 -210 0 -210 0 0 200 0 200 210 0 210 0 0 -200z m440
0 l0 -200 -210 0 -210 0 0 200 0 200 210 0 210 0 0 -200z m440 0 l0 -200 -210
0 -210 0 0 200 0 200 210 0 210 0 0 -200z m440 0 l0 -200 -210 0 -210 0 0 200
0 200 210 0 210 0 0 -200z m-3500 -430 l0 -210 -210 0 -210 0 0 210 0 210 210
0 210 0 0 -210z m1300 0 l0 -210 -200 0 -200 0 0 210 0 210 200 0 200 0 0
-210z m440 0 l0 -210 -200 0 -200 0 0 210 0 210 200 0 200 0 0 -210z m1320 0
l0 -210 -210 0 -210 0 0 210 0 210 210 0 210 0 0 -210z m-2195 -5 l0 -200
-202 -3 -203 -2 0 198 c0 109 3 202 7 206 4 3 95 5 202 4 l196 -3 0 -200z
m1299 199 c14 -5 16 -33 16 -205 l0 -199 -199 0 c-172 0 -200 2 -205 16 -8 21
-8 379 1 387 8 9 366 9 387 1z m-2164 -634 l0 -210 -210 0 -210 0 0 210 0 210
210 0 210 0 0 -210z m440 0 l0 -210 -210 0 -210 0 0 210 0 210 210 0 210 0 0
-210z m2180 0 l0 -210 -210 0 -210 0 0 210 0 210 210 0 210 0 0 -210z m440 0
l0 -210 -210 0 -210 0 0 210 0 210 210 0 210 0 0 -210z m-3500 -440 l0 -210
-210 0 -210 0 0 210 0 210 210 0 210 0 0 -210z m440 0 l0 -210 -210 0 -210 0
0 210 0 210 210 0 210 0 0 -210z m440 0 l0 -210 -210 0 -210 0 0 210 0 210
210 0 210 0 0 -210z m440 0 l0 -210 -210 0 -210 0 0 210 0 210 210 0 210 0 0
-210z m420 0 l0 -210 -200 0 -200 0 0 210 0 210 200 0 200 0 0 -210z m480 195
c0 -8 -4 -15 -10 -15 -5 0 -10 7 -10 15 0 8 5 15 10 15 6 0 10 -7 10 -15z
m840 -195 l0 -210 -210 0 -210 0 0 210 0 210 210 0 210 0 0 -210z m440 0 l0
-210 -210 0 -210 0 0 210 0 210 210 0 210 0 0 -210z m440 0 l0 -210 -210 0
-210 0 0 210 0 210 210 0 210 0 0 -210z m-1720 -195 c0 -8 -4 -15 -10 -15 -5
0 -10 7 -10 15 0 8 5 15 10 15 6 0 10 -7 10 -15z m-2660 -245 l0 -210 -210 0
-210 0 0 210 0 210 210 0 210 0 0 -210z m440 0 l0 -210 -210 0 -210 0 0 210 0
210 210 0 210 0 0 -210z m440 0 l0 -210 -210 0 -210 0 0 210 0 210 210 0 210
0 0 -210z m440 0 l0 -210 -210 0 -210 0 0 210 0 210 210 0 210 0 0 -210z m440
0 l0 -210 -210 0 -210 0 0 210 0 210 210 0 210 0 0 -210z m1300 0 l0 -210
-210 0 -210 0 0 210 0 210 210 0 210 0 0 -210z m440 0 l0 -210 -210 0 -210 0
0 210 0 210 210 0 210 0 0 -210z m440 0 l0 -210 -210 0 -210 0 0 210 0 210
210 0 210 0 0 -210z m440 0 l0 -210 -210 0 -210 0 0 210 0 210 210 0 210 0 0
-210z m440 0 l0 -210 -210 0 -210 0 0 210 0 210 210 0 210 0 0 -210z m-4820
-440 l0 -210 -210 0 -210 0 0 210 0 210 210 0 210 0 0 -210z m440 0 l0 -210
-210 0 -210 0 0 210 0 210 210 0 210 0 0 -210z m440 0 l0 -210 -210 0 -210 0
0 210 0 210 210 0 210 0 0 -210z m3060 0 l0 -210 -210 0 -210 0 0 210 0 210
210 0 210 0 0 -210z m440 0 l0 -210 -210 0 -210 0 0 210 0 210 210 0 210 0 0
-210z m440 0 l0 -210 -210 0 -210 0 0 210 0 210 210 0 210 0 0 -210z m-5260
-440 l0 -210 -198 0 c-141 0 -201 3 -210 12 -9 9 -12 69 -12 210 l0 198 210 0
210 0 0 -210z m440 0 l0 -210 -210 0 -210 0 0 210 0 210 210 0 210 0 0 -210z
m4820 0 l0 -210 -210 0 -210 0 0 210 0 210 210 0 210 0 0 -210z m440 12 c0
-141 -3 -201 -12 -210 -9 -9 -69 -12 -210 -12 l-198 0 0 210 0 210 210 0 210
0 0 -198z m-6140 -442 l0 -200 -200 0 -200 0 0 200 0 200 200 0 200 0 0 -200z
m440 0 l0 -200 -210 0 -210 0 0 200 0 200 210 0 210 0 0 -200z m5700 0 l0
-200 -210 0 -210 0 0 200 0 200 210 0 210 0 0 -200z m420 0 l0 -200 -200 0
-200 0 0 200 0 200 200 0 200 0 0 -200z"/>
</g>
</svg>
